<?xml version="1.0" encoding="UTF-8"?>
<!DOCTYPE svg PUBLIC "-//W3C//DTD SVG 1.1//EN" "http://www.w3.org/Graphics/SVG/1.1/DTD/svg11.dtd">
<!-- Creator: CorelDRAW 2019 (64-Bit Evaluation Version) -->
<svg xmlns="http://www.w3.org/2000/svg" xml:space="preserve" width="2.89709in" height="1.10993in" version="1.1" style="shape-rendering:geometricPrecision; text-rendering:geometricPrecision; image-rendering:optimizeQuality; fill-rule:evenodd; clip-rule:evenodd"
viewBox="0 0 879.53 336.97"
 xmlns:xlink="http://www.w3.org/1999/xlink"
 xmlns:xodm="http://www.corel.com/coreldraw/odm/2003">
 <defs>
  <style type="text/css">
   <![CDATA[
    .fil5 {fill:#14791E;fill-rule:nonzero}
    .fil6 {fill:#AA8307;fill-rule:nonzero}
    .fil3 {fill:#29B425;fill-rule:nonzero;fill-opacity:0.701961}
    .fil4 {fill:#FFCC00;fill-rule:nonzero;fill-opacity:0.701961}
    .fil0 {fill:url(#id3);fill-opacity:0.701961}
    .fil2 {fill:url(#id4);fill-opacity:0.701961}
    .fil1 {fill:url(#id5);fill-opacity:0.701961}
   ]]>
  </style>
    <clipPath id="id0">
     <path d="M-0 9.25l295.25 0 0 295.25 -295.25 0 0 -295.25z"/>
    </clipPath>
      <clipPath id="id1">
       <path d="M45.55 23.17l184.1 0 0 248.27 -184.1 0 0 -248.27z"/>
      </clipPath>
    <clipPath id="id2">
     <path d="M251.95 0l627.58 0 0 336.97 -627.58 0 0 -336.97z"/>
    </clipPath>
  <linearGradient id="id3" gradientUnits="userSpaceOnUse" x1="185.16" y1="119.38" x2="-86.5" y2="119.38">
   <stop offset="0" style="stop-opacity:1; stop-color:#009933"/>
   <stop offset="0.619608" style="stop-opacity:1; stop-color:#4CCC1A"/>
   <stop offset="1" style="stop-opacity:1; stop-color:#99FF00"/>
  </linearGradient>
  <linearGradient id="id4" gradientUnits="userSpaceOnUse" x1="264.49" y1="-1.34" x2="73.18" y2="189.97">
   <stop offset="0" style="stop-opacity:1; stop-color:#DCB000"/>
   <stop offset="0.270588" style="stop-opacity:1; stop-color:#EDBE00"/>
   <stop offset="1" style="stop-opacity:1; stop-color:#FFCC00"/>
  </linearGradient>
  <linearGradient id="id5" gradientUnits="userSpaceOnUse" xlink:href="#id4" x1="264.49" y1="-1.34" x2="73.18" y2="189.97">
  </linearGradient>
 </defs>
 <g id="Layer_x0020_1">
  <metadata id="CorelCorpID_0Corel-Layer"/>
  <g id="_2002939404144">
   <g style="clip-path:url(#id0)">
    <image x="-0" y="9.25" width="295.25" height="295.25" xlink:href="app_logo_Images\app_logo_ImgID1.png"/>
   </g>
   <g>
    <g>
     <g style="clip-path:url(#id1)">
      <image x="45.55" y="23.17" width="184.1" height="248.27" xlink:href="app_logo_Images\app_logo_ImgID2.png"/>
     </g>
     <path class="fil0" d="M208.4 250.19l-140.85 0c2.27,-42.4 4.01,-128.91 -0.76,-184.55 1.71,-0.12 13.94,-10.1 30.01,-16.24 14.71,-5.63 29.74,-5.95 45.21,-3.63 43.29,6.5 72.62,36.8 -11.96,68.21 -42.55,15.8 -69.33,29.97 -30.64,75.81 20.79,24.64 71.78,52.63 108.99,60.41z"/>
     <g>
      <path class="fil1" d="M59.63 23.08l201.55 0 0 227.11 -21.38 0c8.24,-3.14 12.73,-9.95 11.38,-21.58 -10.9,54.46 -114.98,-16.15 -132.33,-31.58 -47.9,-42.61 -30.47,-56.42 14.8,-72.19 151.63,-52.83 -5.39,-131.72 -68.66,-76.15 -1.41,-10.78 -3.17,-19.6 -5.36,-25.61z"/>
      <path class="fil2" d="M34.07 23.08l16.92 0c7.76,57.39 11.44,151.61 8.13,227.11l-25.04 0 0 -227.11z"/>
     </g>
    </g>
    <g>
     <path class="fil3" d="M238.89 329.76c-6.98,0 -12.54,-2.32 -16.7,-6.96 -4.15,-4.63 -6.22,-10.66 -6.22,-18.08 0,-7.87 2.13,-14.18 6.4,-18.92 4.26,-4.74 10.08,-7.11 17.45,-7.11 6.66,0 12.05,2.28 16.18,6.83 4.13,4.56 6.18,10.53 6.18,17.93 0,8.17 -2.12,14.6 -6.34,19.28 -4.23,4.69 -9.88,7.03 -16.95,7.03zm0.34 -47.97c-5.74,0 -10.46,2.08 -14.17,6.23 -3.7,4.16 -5.56,9.6 -5.56,16.34 0,6.79 1.75,12.22 5.27,16.25 3.52,4.03 8.19,6.04 14.05,6.04 6.1,0 10.93,-2 14.5,-5.98 3.56,-3.99 5.34,-9.53 5.34,-16.66 0,-6.98 -1.74,-12.43 -5.22,-16.34 -3.48,-3.91 -8.21,-5.88 -14.2,-5.88z"/>
     <path class="fil3" d="M171.05 328.92l0 -49.38 12.36 0c8.19,0 14.43,2.05 18.69,6.12 4.27,4.09 6.41,10.05 6.41,17.87 0,7.54 -2.29,13.65 -6.87,18.34 -4.58,4.69 -10.9,7.04 -18.95,7.04l-11.64 0zm3.39 -46.28l0 43.17 7.76 0c7.33,0 12.96,-1.91 16.89,-5.7 3.93,-3.8 5.89,-9.29 5.89,-16.45 0,-14.02 -7.37,-21.02 -22.1,-21.02l-8.44 0z"/>
     <polygon class="fil3" points="154.96,328.92 154.96,279.54 158.35,279.54 158.35,328.92 "/>
     <path class="fil3" d="M119.98 309.09l0 19.82 -3.39 0 0 -49.38 11.91 0c5.08,0 8.96,1.18 11.64,3.53 2.69,2.35 4.03,5.78 4.03,10.31 0,4.59 -1.5,8.35 -4.5,11.3 -3,2.95 -7.2,4.42 -12.59,4.42l-7.1 0zm0 -26.45l0 23.35 7.03 0c4.46,0 7.84,-1.06 10.16,-3.19 2.32,-2.13 3.48,-5.14 3.48,-9.02 0,-7.43 -4.26,-11.15 -12.78,-11.15l-7.89 0z"/>
     <path class="fil3" d="M104.39 328.92l-5.64 -15.38 -21.41 0 -5.66 15.38 -3.75 0 18.62 -49.38 3.23 0 18.42 49.38 -3.82 0zm-15.14 -41.33c-0.26,-0.68 -0.46,-1.36 -0.62,-2.02 -0.16,-0.57 -0.33,-1.15 -0.52,-1.73l-0.14 0c-0.39,1.52 -0.76,2.75 -1.13,3.69l-8.3 22.9 19.03 0 -8.32 -22.84z"/>
     <path class="fil3" d="M58.33 328.92l-6.58 -14.46c-1.35,-2.99 -2.7,-5 -4.07,-6.02 -1.35,-1.02 -3.04,-1.53 -5.09,-1.53l-6.14 0 0 22.01 -3.39 0 0 -49.38 13.71 0c4.36,0 7.78,1.18 10.28,3.53 2.49,2.35 3.74,5.46 3.74,9.31 0,3.56 -1.02,6.54 -3.07,8.92 -2.05,2.39 -4.9,3.92 -8.58,4.61l0 0.14c1.95,0.78 3.86,3.15 5.73,7.12l7.34 15.74 -3.87 0zm-21.88 -46.28l0 21.16 8.51 0c3.76,0 6.76,-0.99 8.97,-2.96 2.22,-1.98 3.33,-4.69 3.33,-8.14 0,-3.15 -1,-5.61 -3,-7.39 -2,-1.77 -4.86,-2.67 -8.58,-2.67l-9.23 0z"/>
     <path class="fil4" d="M238.94 321.93c-4.84,0 -8.7,-1.61 -11.58,-4.83 -2.88,-3.21 -4.31,-7.39 -4.31,-12.54 0,-5.45 1.48,-9.83 4.44,-13.12 2.95,-3.29 6.99,-4.93 12.1,-4.93 4.62,0 8.36,1.58 11.22,4.74 2.86,3.16 4.29,7.3 4.29,12.43 0,5.67 -1.47,10.12 -4.39,13.37 -2.94,3.25 -6.85,4.88 -11.76,4.88zm0.24 -33.26c-3.98,0 -7.26,1.44 -9.82,4.32 -2.57,2.89 -3.86,6.66 -3.86,11.33 0,4.71 1.22,8.47 3.65,11.27 2.44,2.8 5.68,4.19 9.74,4.19 4.23,0 7.58,-1.39 10.05,-4.15 2.47,-2.76 3.7,-6.61 3.7,-11.55 0,-4.84 -1.21,-8.62 -3.62,-11.33 -2.41,-2.71 -5.69,-4.08 -9.85,-4.08z"/>
    </g>
   </g>
   <g style="clip-path:url(#id2)">
    <image x="251.95" y="0" width="627.58" height="336.97" xlink:href="app_logo_Images\app_logo_ImgID3.png"/>
   </g>
   <g>
    <g>
     <path class="fil5" d="M445.22 241.83l-0.22 0 0 33.77 -8.95 0 0 -81.55 8.95 0 0 9.81 0.22 0c4.39,-7.41 10.84,-11.11 19.31,-11.11 7.19,0 12.81,2.49 16.85,7.5 4.04,4.99 6.05,11.69 6.05,20.09 0,9.35 -2.27,16.83 -6.81,22.45 -4.54,5.6 -10.76,8.41 -18.66,8.41 -7.24,0 -12.81,-3.13 -16.74,-9.38zm-0.22 -22.53l0 7.8c0,4.62 1.49,8.55 4.51,11.77 3,3.22 6.8,4.82 11.41,4.82 5.42,0 9.66,-2.07 12.74,-6.22 3.07,-4.15 4.62,-9.9 4.62,-17.3 0,-6.22 -1.43,-11.08 -4.32,-14.61 -2.87,-3.52 -6.76,-5.29 -11.65,-5.29 -5.21,0 -9.38,1.8 -12.55,5.42 -3.16,3.63 -4.75,8.16 -4.75,13.61z"/>
     <path class="fil5" d="M379.56 241.83l-0.22 0 0 33.77 -8.95 0 0 -81.55 8.95 0 0 9.81 0.22 0c4.39,-7.41 10.84,-11.11 19.31,-11.11 7.19,0 12.81,2.49 16.85,7.5 4.04,4.99 6.05,11.69 6.05,20.09 0,9.35 -2.27,16.83 -6.81,22.45 -4.54,5.6 -10.76,8.41 -18.65,8.41 -7.24,0 -12.81,-3.13 -16.74,-9.38zm-0.22 -22.53l0 7.8c0,4.62 1.49,8.55 4.51,11.77 3,3.22 6.8,4.82 11.41,4.82 5.42,0 9.66,-2.07 12.73,-6.22 3.07,-4.15 4.62,-9.9 4.62,-17.3 0,-6.22 -1.43,-11.08 -4.32,-14.61 -2.87,-3.52 -6.76,-5.29 -11.65,-5.29 -5.21,0 -9.38,1.8 -12.55,5.42 -3.16,3.63 -4.75,8.16 -4.75,13.61z"/>
    </g>
    <g>
     <path class="fil5" d="M840.99 249.91l-8.96 0 0 -31.86c0,-11.86 -4.32,-17.78 -12.98,-17.78 -4.47,0 -8.17,1.68 -11.1,5.05 -2.94,3.37 -4.39,7.61 -4.39,12.73l0 31.86 -8.95 0 0 -55.85 8.95 0 0 9.27 0.22 0c4.21,-7.06 10.31,-10.57 18.32,-10.57 6.11,0 10.78,1.97 14.02,5.92 3.24,3.93 4.86,9.64 4.86,17.09l0 34.15z"/>
     <path class="fil5" d="M752.49 251.22c-8.25,0 -14.84,-2.61 -19.77,-7.82 -4.91,-5.21 -7.39,-12.14 -7.39,-20.76 0,-9.38 2.57,-16.7 7.69,-21.99 5.14,-5.27 12.06,-7.89 20.8,-7.89 8.32,0 14.82,2.55 19.49,7.69 4.67,5.12 7,12.23 7,21.32 0,8.92 -2.51,16.05 -7.54,21.41 -5.05,5.36 -11.8,8.04 -20.27,8.04zm0.65 -50.94c-5.73,0 -10.28,1.95 -13.63,5.86 -3.35,3.91 -5.03,9.29 -5.03,16.18 0,6.61 1.69,11.82 5.08,15.64 3.39,3.82 7.91,5.73 13.57,5.73 5.79,0 10.24,-1.88 13.35,-5.62 3.11,-3.74 4.66,-9.07 4.66,-15.97 0,-6.98 -1.55,-12.36 -4.66,-16.14 -3.11,-3.8 -7.56,-5.68 -13.35,-5.68z"/>
     <polygon class="fil5" points="711.05,249.91 702.1,249.91 702.1,194.06 711.05,194.06 "/>
     <path class="fil5" d="M706.68 179.87c-1.58,0 -2.96,-0.54 -4.08,-1.64 -1.14,-1.08 -1.69,-2.46 -1.69,-4.13 0,-1.68 0.56,-3.07 1.69,-4.17 1.12,-1.12 2.5,-1.68 4.08,-1.68 1.64,0 3.03,0.56 4.19,1.68 1.14,1.1 1.71,2.49 1.71,4.17 0,1.6 -0.58,2.96 -1.71,4.08 -1.15,1.13 -2.55,1.69 -4.19,1.69z"/>
     <path class="fil5" d="M690.16 249.37c-2.1,1.15 -4.9,1.73 -8.34,1.73 -9.79,0 -14.67,-5.46 -14.67,-16.37l0 -33.05 -9.61 0 0 -7.63 9.61 0 0 -13.63 8.94 -2.9 0 16.53 14.07 0 0 7.63 -14.07 0 0 31.48c0,3.74 0.63,6.4 1.92,8.01 1.27,1.6 3.37,2.4 6.33,2.4 2.25,0 4.19,-0.61 5.83,-1.86l0 7.65z"/>
     <path class="fil5" d="M647.4 249.91l-8.96 0 0 -8.73 -0.2 0c-3.89,6.7 -9.63,10.04 -17.18,10.04 -5.57,0 -9.92,-1.47 -13.07,-4.41 -3.15,-2.94 -4.71,-6.85 -4.71,-11.73 0,-10.43 6.14,-16.51 18.43,-18.21l16.74 -2.35c0,-9.5 -3.84,-14.24 -11.5,-14.24 -6.72,0 -12.79,2.29 -18.21,6.87l0 -9.16c5.49,-3.5 11.8,-5.23 18.97,-5.23 13.13,0 19.7,6.94 19.7,20.83l0 36.32zm-8.96 -28.26l-13.46 1.86c-4.15,0.58 -7.28,1.6 -9.38,3.09 -2.1,1.47 -3.16,4.08 -3.16,7.82 0,2.72 0.97,4.95 2.92,6.68 1.94,1.73 4.53,2.59 7.76,2.59 4.43,0 8.1,-1.56 10.98,-4.65 2.9,-3.11 4.34,-7.06 4.34,-11.82l0 -5.57z"/>
     <path class="fil5" d="M593.89 247.35c-4.28,2.59 -9.38,3.87 -15.27,3.87 -7.97,0 -14.39,-2.59 -19.29,-7.76 -4.88,-5.17 -7.34,-11.9 -7.34,-20.16 0,-9.2 2.64,-16.59 7.91,-22.17 5.27,-5.57 12.31,-8.36 21.11,-8.36 4.91,0 9.23,0.89 12.98,2.72l0 9.16c-4.15,-2.91 -8.58,-4.36 -13.31,-4.36 -5.7,0 -10.39,2.05 -14.04,6.14 -3.65,4.08 -5.49,9.46 -5.49,16.1 0,6.55 1.73,11.71 5.16,15.49 3.44,3.78 8.04,5.68 13.83,5.68 4.88,0 9.46,-1.62 13.74,-4.86l0 8.51z"/>
     <polygon class="fil5" points="537.72,249.91 528.76,249.91 528.76,194.06 537.72,194.06 "/>
     <path class="fil5" d="M533.34 179.87c-1.58,0 -2.96,-0.54 -4.08,-1.64 -1.14,-1.08 -1.69,-2.46 -1.69,-4.13 0,-1.68 0.56,-3.07 1.69,-4.17 1.12,-1.12 2.5,-1.68 4.08,-1.68 1.64,0 3.03,0.56 4.19,1.68 1.14,1.1 1.71,2.49 1.71,4.17 0,1.6 -0.58,2.96 -1.71,4.08 -1.15,1.13 -2.55,1.69 -4.19,1.69z"/>
     <polygon class="fil5" points="510.67,249.91 501.71,249.91 501.71,167.23 510.67,167.23 "/>
     <path class="fil5" d="M360.09 249.91l-10.15 0 -8.28 -21.93 -33.18 0 -7.8 21.93 -10.18 0 29.99 -78.21 9.49 0 30.11 78.21zm-21.45 -30.16l-12.27 -33.33c-0.39,-1.1 -0.8,-2.85 -1.19,-5.23l-0.22 0c-0.35,2.21 -0.78,3.95 -1.25,5.23l-12.18 33.33 27.11 0z"/>
    </g>
    <g>
     <polygon class="fil6" points="725.31,101.32 716.36,101.32 716.36,18.64 725.31,18.64 "/>
     <path class="fil6" d="M699.51 101.32l-8.96 0 0 -8.73 -0.2 0c-3.89,6.7 -9.63,10.04 -17.18,10.04 -5.57,0 -9.92,-1.47 -13.07,-4.41 -3.14,-2.94 -4.71,-6.85 -4.71,-11.73 0,-10.42 6.14,-16.51 18.43,-18.21l16.74 -2.35c0,-9.49 -3.84,-14.24 -11.51,-14.24 -6.72,0 -12.79,2.29 -18.21,6.87l0 -9.16c5.49,-3.5 11.8,-5.23 18.97,-5.23 13.13,0 19.7,6.94 19.7,20.83l0 36.32zm-8.96 -28.26l-13.46 1.86c-4.15,0.58 -7.28,1.6 -9.38,3.09 -2.1,1.47 -3.16,4.08 -3.16,7.82 0,2.72 0.97,4.95 2.92,6.68 1.94,1.73 4.53,2.59 7.76,2.59 4.43,0 8.1,-1.56 10.98,-4.65 2.9,-3.11 4.34,-7.06 4.34,-11.82l0 -5.57z"/>
     <path class="fil6" d="M649.93 45.47l-22.27 55.85 -8.77 0 -21.17 -55.85 9.81 0 14.19 40.59c1.06,2.98 1.71,5.57 1.97,7.8l0.2 0c0.37,-2.81 0.95,-5.34 1.75,-7.6l14.84 -40.79 9.44 0z"/>
     <path class="fil6" d="M563.89 102.63c-8.25,0 -14.84,-2.61 -19.77,-7.82 -4.91,-5.21 -7.39,-12.14 -7.39,-20.76 0,-9.38 2.57,-16.7 7.69,-21.99 5.14,-5.27 12.06,-7.89 20.8,-7.89 8.32,0 14.82,2.55 19.49,7.69 4.67,5.12 7,12.23 7,21.32 0,8.92 -2.51,16.05 -7.54,21.41 -5.05,5.36 -11.8,8.04 -20.27,8.04zm0.65 -50.94c-5.73,0 -10.28,1.95 -13.63,5.87 -3.35,3.91 -5.03,9.29 -5.03,16.18 0,6.61 1.69,11.82 5.08,15.64 3.39,3.82 7.91,5.73 13.57,5.73 5.79,0 10.24,-1.88 13.35,-5.62 3.11,-3.74 4.66,-9.07 4.66,-15.97 0,-6.98 -1.55,-12.36 -4.66,-16.14 -3.11,-3.8 -7.56,-5.68 -13.35,-5.68z"/>
     <path class="fil6" d="M530.85 54.52c-1.56,-1.19 -3.82,-1.79 -6.76,-1.79 -3.84,0 -7.02,1.79 -9.59,5.4 -2.55,3.59 -3.84,8.51 -3.84,14.73l0 28.47 -8.95 0 0 -55.85 8.95 0 0 11.51 0.22 0c1.26,-3.93 3.2,-6.98 5.83,-9.2 2.62,-2.2 5.55,-3.3 8.79,-3.3 2.33,0 4.1,0.26 5.34,0.76l0 9.27z"/>
     <path class="fil6" d="M445.22 93.24l-0.22 0 0 33.77 -8.95 0 0 -81.55 8.95 0 0 9.81 0.22 0c4.39,-7.41 10.84,-11.11 19.31,-11.11 7.19,0 12.81,2.5 16.85,7.5 4.04,4.99 6.05,11.69 6.05,20.09 0,9.35 -2.27,16.83 -6.81,22.45 -4.54,5.6 -10.76,8.41 -18.66,8.41 -7.24,0 -12.81,-3.13 -16.74,-9.38zm-0.22 -22.53l0 7.8c0,4.62 1.49,8.55 4.51,11.77 3,3.22 6.8,4.82 11.41,4.82 5.42,0 9.66,-2.07 12.74,-6.22 3.07,-4.15 4.62,-9.9 4.62,-17.3 0,-6.22 -1.43,-11.08 -4.32,-14.61 -2.87,-3.52 -6.76,-5.29 -11.65,-5.29 -5.21,0 -9.38,1.8 -12.55,5.42 -3.16,3.63 -4.75,8.16 -4.75,13.61z"/>
     <path class="fil6" d="M379.56 93.24l-0.22 0 0 33.77 -8.95 0 0 -81.55 8.95 0 0 9.81 0.22 0c4.39,-7.41 10.84,-11.11 19.31,-11.11 7.19,0 12.81,2.5 16.85,7.5 4.04,4.99 6.05,11.69 6.05,20.09 0,9.35 -2.27,16.83 -6.81,22.45 -4.54,5.6 -10.76,8.41 -18.65,8.41 -7.24,0 -12.81,-3.13 -16.74,-9.38zm-0.22 -22.53l0 7.8c0,4.62 1.49,8.55 4.51,11.77 3,3.22 6.8,4.82 11.41,4.82 5.42,0 9.66,-2.07 12.73,-6.22 3.07,-4.15 4.62,-9.9 4.62,-17.3 0,-6.22 -1.43,-11.08 -4.32,-14.61 -2.87,-3.52 -6.76,-5.29 -11.65,-5.29 -5.21,0 -9.38,1.8 -12.55,5.42 -3.16,3.63 -4.75,8.16 -4.75,13.61z"/>
     <path class="fil6" d="M360.09 101.32l-10.15 0 -8.28 -21.93 -33.18 0 -7.8 21.93 -10.18 0 29.99 -78.21 9.49 0 30.11 78.21zm-21.45 -30.16l-12.27 -33.33c-0.39,-1.1 -0.8,-2.85 -1.19,-5.23l-0.22 0c-0.35,2.22 -0.78,3.95 -1.25,5.23l-12.18 33.33 27.11 0z"/>
    </g>
   </g>
  </g>
 </g>
</svg>
