<?xml version="1.0" encoding="UTF-8"?>
<!DOCTYPE svg PUBLIC "-//W3C//DTD SVG 1.1//EN" "http://www.w3.org/Graphics/SVG/1.1/DTD/svg11.dtd">
<!-- Creator: CorelDRAW 2019 (64-Bit Evaluation Version) -->
<svg xmlns="http://www.w3.org/2000/svg" xml:space="preserve" width="0.566665in" height="0.566665in" version="1.1" style="shape-rendering:geometricPrecision; text-rendering:geometricPrecision; image-rendering:optimizeQuality; fill-rule:evenodd; clip-rule:evenodd"
viewBox="0 0 101.38 101.38"
 xmlns:xlink="http://www.w3.org/1999/xlink"
 xmlns:xodm="http://www.corel.com/coreldraw/odm/2003">
 <defs>
  <style type="text/css">
   <![CDATA[
    .fil0 {fill:white}
   ]]>
  </style>
 </defs>
 <g id="Layer_x0020_1">
  <metadata id="CorelCorpID_0Corel-Layer"/>
  <g id="_1350038665456">
   <path class="fil0" d="M-0 50.63c0,9.64 3.17,20.7 8.72,28.51 0.65,0.91 3.16,4.29 4.09,5.25 0.98,1.01 2.1,2.42 3.1,3.18 0.62,0.47 0.96,0.98 1.59,1.47 2.72,2.12 4.04,3.31 7.18,5.21 0.69,0.42 1.25,0.71 1.98,1.08 3.83,1.93 6.49,3.27 11.17,4.44 13.17,3.28 26.99,1.61 38.58,-5.35 4.1,-2.46 7.07,-4.78 10.48,-8.19 0.28,-0.28 0.51,-0.48 0.76,-0.77 0.31,-0.35 0.34,-0.49 0.69,-0.85 0.54,-0.55 0.96,-1.04 1.44,-1.62 3.54,-4.35 3.65,-5.05 6.09,-9.22l1.93 -4.35c1.14,-2.86 1.44,-3.95 2.24,-7.11 2.71,-10.76 1.19,-22.74 -3.09,-32.37 -0.62,-1.41 -1.38,-2.85 -2.13,-4.15 -0.39,-0.68 -0.68,-1.24 -1.14,-1.92 -0.47,-0.7 -0.83,-1.25 -1.29,-1.93 -0.61,-0.91 -3.17,-4.27 -4.12,-5.22l-3.14 -3.14c-3.3,-3.34 -8.94,-6.92 -13.16,-8.88 -19.39,-9.01 -42.05,-4.82 -57.25,10.41 -5.38,5.39 -9.61,12.05 -12.02,19.37 -0.55,1.68 -0.93,3.1 -1.38,4.9 -0.77,3.05 -1.31,7.55 -1.31,11.25zm48.74 -42.23c-22.73,1.07 -41.52,20.24 -40.35,44.38 1.1,22.75 20.27,41.37 44.37,40.29 22.59,-1.02 41.47,-20.33 40.25,-44.42 -1.14,-22.66 -20.26,-41.37 -44.26,-40.24z"/>
   <path class="fil0" d="M47.64 45.81c-1.08,0.89 -1.88,1.47 -2.42,3.09 -0.69,2.08 -0.11,2.9 0.37,4.64 -0.68,1 -2.83,2.9 -3.81,3.88 -1.22,1.22 -7.2,6.98 -7.69,7.93 -1.37,2.69 1.95,6.44 5.4,2.96 0.7,-0.7 1.28,-1.29 1.99,-1.99l9.74 -9.7c0.41,-0.27 5.7,-1.14 5.21,-6.45 -0.16,-1.67 -0.9,-2.82 -2,-3.83 -0.42,-0.38 -0.7,-0.4 -0.71,-1.21 -0.1,-5.16 0,-10.47 0.01,-15.65 0,-2.12 -0.37,-4.76 -3.41,-4.42 -1.08,0.12 -1.89,0.81 -2.29,1.53 -0.68,1.25 -0.37,9.74 -0.37,11.47 0,2.39 0.16,5.43 -0.03,7.75z"/>
  </g>
 </g>
</svg>
