<?xml version="1.0" encoding="UTF-8"?>
<!DOCTYPE svg PUBLIC "-//W3C//DTD SVG 1.1//EN" "http://www.w3.org/Graphics/SVG/1.1/DTD/svg11.dtd">
<!-- Creator: CorelDRAW 2019 (64-Bit Evaluation Version) -->
<svg xmlns="http://www.w3.org/2000/svg" xml:space="preserve" width="0.566665in" height="0.566665in" version="1.1" style="shape-rendering:geometricPrecision; text-rendering:geometricPrecision; image-rendering:optimizeQuality; fill-rule:evenodd; clip-rule:evenodd"
viewBox="0 0 18.43 18.43"
 xmlns:xlink="http://www.w3.org/1999/xlink"
 xmlns:xodm="http://www.corel.com/coreldraw/odm/2003">
 <defs>
  <style type="text/css">
   <![CDATA[
    .fil0 {fill:white}
   ]]>
  </style>
 </defs>
 <g id="Layer_x0020_1">
  <metadata id="CorelCorpID_0Corel-Layer"/>
  <g id="_1350180157872">
   <g>
    <path class="fil0" d="M4.11 1.54c-0.41,0.31 -0.92,0.73 -1.14,0.91 -0.13,0.1 -0.25,0.25 -0.36,0.36 -0.06,0.06 -0.13,0.13 -0.19,0.19 -0.08,0.09 -0.14,0.18 -0.23,0.27 -0.06,0.07 -0.12,0.15 -0.18,0.22 -0.62,0.7 -1.24,1.94 -1.54,2.82 -0.29,0.86 -0.45,1.77 -0.47,2.67l-0 0.42c0.02,0.95 0.19,1.88 0.49,2.78l0.34 0.85c0.7,1.43 1.76,2.84 3.1,3.73 1.05,0.7 1.97,1.15 3.2,1.44 3,0.71 6.33,-0.2 8.52,-2.39 0.62,-0.62 1.05,-1.2 1.53,-1.93 0.39,-0.59 0.8,-1.68 0.97,-2.38 0.16,-0.63 0.25,-1.27 0.28,-1.92l0 -0.81c-0.08,-1.69 -0.63,-3.28 -1.56,-4.69 -0.11,-0.16 -0.22,-0.31 -0.33,-0.46 -0.11,-0.15 -0.23,-0.3 -0.35,-0.45 -0.25,-0.29 -0.54,-0.56 -0.82,-0.82 -0.06,-0.06 -0.14,-0.11 -0.21,-0.17 -0.15,-0.14 -0.5,-0.4 -0.83,-0.63l0 2.02c0.08,0.07 0.21,0.16 0.28,0.23 2.06,2.09 2.82,5.04 1.88,7.84 -0.36,1.07 -0.76,1.71 -1.46,2.58 -0.51,0.63 -1.18,1.16 -1.87,1.58 -2.2,1.32 -4.78,1.36 -7.11,0.36 -0.55,-0.24 -1.26,-0.69 -1.71,-1.08 -0.06,-0.05 -0.11,-0.11 -0.17,-0.15 -0.59,-0.45 -1.33,-1.44 -1.67,-2.11 -0.74,-1.46 -0.9,-2.29 -0.9,-3.92 0,-1.53 0.85,-3.7 1.94,-4.79 0.2,-0.2 0.33,-0.4 0.57,-0.59 0.01,-0.01 0.01,-0.01 0.02,-0.02l0 -1.97z"/>
   </g>
   <g>
    <polygon class="fil0" points="8.43,0 8.43,8.31 10,8.31 10,0 "/>
   </g>
  </g>
 </g>
</svg>
