<?xml version="1.0" encoding="UTF-8"?>
<!DOCTYPE svg PUBLIC "-//W3C//DTD SVG 1.1//EN" "http://www.w3.org/Graphics/SVG/1.1/DTD/svg11.dtd">
<!-- Creator: CorelDRAW 2019 (64-Bit Evaluation Version) -->
<svg xmlns="http://www.w3.org/2000/svg" xml:space="preserve" width="0.566665in" height="0.566661in" version="1.1" style="shape-rendering:geometricPrecision; text-rendering:geometricPrecision; image-rendering:optimizeQuality; fill-rule:evenodd; clip-rule:evenodd"
viewBox="0 0 24.58 24.58"
 xmlns:xlink="http://www.w3.org/1999/xlink"
 xmlns:xodm="http://www.corel.com/coreldraw/odm/2003">
 <defs>
  <style type="text/css">
   <![CDATA[
    .fil0 {fill:white}
   ]]>
  </style>
 </defs>
 <g id="Layer_x0020_1">
  <metadata id="CorelCorpID_0Corel-Layer"/>
  <g id="_1350248472128">
   <g>
    <path class="fil0" d="M11.56 6.56l0 0.72c-0.22,0 -0.61,0.18 -0.82,0.27 -1.19,0.53 -1.81,1.54 -1.95,2.85 -0.02,0.23 0.02,0.48 -0.01,0.71 -0.02,0.18 -0.03,0.5 -0.04,0.7 -0.01,0.21 -0.06,0.44 -0.09,0.66 -0.06,0.41 -0.16,0.81 -0.29,1.19 -0.06,0.17 -0.14,0.38 -0.21,0.53 -0.07,0.15 -0.18,0.34 -0.28,0.47 -0.33,0.44 -0.24,0.29 -0.24,1.22l4.87 0 4.87 0c0,-0.92 0.08,-0.78 -0.24,-1.22 -0.1,-0.13 -0.2,-0.32 -0.28,-0.47 -0.07,-0.15 -0.16,-0.36 -0.21,-0.53 -0.13,-0.38 -0.23,-0.79 -0.29,-1.19 -0.03,-0.21 -0.08,-0.44 -0.09,-0.66 -0.01,-0.2 -0.02,-0.52 -0.04,-0.7 -0.03,-0.23 0.01,-0.48 -0.01,-0.71 -0.14,-1.31 -0.76,-2.32 -1.95,-2.85 -0.2,-0.09 -0.6,-0.27 -0.82,-0.27l0 -0.72c0,-0.43 -0.42,-0.87 -0.94,-0.83 -0.51,-0.04 -0.94,0.39 -0.94,0.83zm-0.32 10.11c0,0.68 0.56,1.2 1.19,1.2 0.02,0 0.05,-0 0.07,-0 0.02,0 0.05,0 0.07,0 0.63,0 1.19,-0.52 1.19,-1.2 0,-0.1 -0,-0.3 -0.1,-0.3l-1.16 0 -1.16 0c-0.1,0 -0.1,0.19 -0.1,0.3z"/>
   </g>
   <g>
    <g>
     <path class="fil0" d="M-0 12.28c0,2.34 0.77,5.02 2.11,6.91 0.16,0.22 0.77,1.04 0.99,1.27 0.24,0.25 0.51,0.59 0.75,0.77 0.15,0.11 0.23,0.24 0.39,0.36 0.66,0.51 0.98,0.8 1.74,1.26 0.17,0.1 0.3,0.17 0.48,0.26 0.93,0.47 1.57,0.79 2.71,1.08 3.19,0.8 6.54,0.39 9.35,-1.3 0.99,-0.6 1.72,-1.16 2.54,-1.99 0.07,-0.07 0.12,-0.12 0.18,-0.19 0.08,-0.09 0.08,-0.12 0.17,-0.2 0.13,-0.13 0.23,-0.25 0.35,-0.39 0.86,-1.05 0.88,-1.22 1.48,-2.24l0.47 -1.05c0.28,-0.69 0.35,-0.96 0.54,-1.72 0.5,-1.99 0.41,-4.14 -0.13,-6.09 -0.54,0.14 -1.1,0.22 -1.68,0.22 -0.12,0 -0.24,-0 -0.36,-0.01 0.26,0.82 0.42,1.68 0.46,2.57 0.29,5.84 -4.28,10.52 -9.76,10.77 -5.84,0.26 -10.49,-4.25 -10.76,-9.77 -0.28,-5.85 4.27,-10.5 9.78,-10.76 1.43,-0.07 2.79,0.16 4.03,0.61l-0 -0.01c0,-0.7 0.11,-1.38 0.31,-2.01 -4.39,-1.47 -9.24,-0.33 -12.6,3.04 -1.3,1.31 -2.33,2.92 -2.91,4.7 -0.13,0.41 -0.22,0.75 -0.33,1.19 -0.19,0.74 -0.32,1.83 -0.32,2.73z"/>
    </g>
   </g>
  </g>
 </g>
</svg>
