<?xml version="1.0" encoding="UTF-8"?>
<!DOCTYPE svg PUBLIC "-//W3C//DTD SVG 1.1//EN" "http://www.w3.org/Graphics/SVG/1.1/DTD/svg11.dtd">
<!-- Creator: CorelDRAW 2019 (64-Bit Evaluation Version) -->
<svg xmlns="http://www.w3.org/2000/svg" xml:space="preserve" width="0.634374in" height="0.622732in" version="1.1" style="shape-rendering:geometricPrecision; text-rendering:geometricPrecision; image-rendering:optimizeQuality; fill-rule:evenodd; clip-rule:evenodd"
viewBox="0 0 30.81 30.24"
 xmlns:xlink="http://www.w3.org/1999/xlink"
 xmlns:xodm="http://www.corel.com/coreldraw/odm/2003">
 <defs>
  <style type="text/css">
   <![CDATA[
    .fil0 {fill:white}
   ]]>
  </style>
 </defs>
 <g id="Layer_x0020_1">
  <metadata id="CorelCorpID_0Corel-Layer"/>
  <g id="_2002942169504">
   <g>
    <path class="fil0" d="M12.94 10.06l0 0.8c-0.24,0.01 -0.69,0.2 -0.91,0.3 -1.33,0.59 -2.02,1.72 -2.18,3.2 -0.03,0.25 0.02,0.54 -0.01,0.79 -0.03,0.2 -0.04,0.56 -0.05,0.78 -0.01,0.24 -0.06,0.5 -0.1,0.73 -0.07,0.46 -0.18,0.91 -0.33,1.34 -0.06,0.19 -0.16,0.43 -0.24,0.59 -0.08,0.17 -0.2,0.38 -0.31,0.52 -0.37,0.49 -0.27,0.33 -0.27,1.36l5.45 0 5.45 0c0,-1.03 0.09,-0.88 -0.27,-1.36 -0.11,-0.14 -0.23,-0.36 -0.31,-0.52 -0.08,-0.16 -0.17,-0.4 -0.24,-0.59 -0.14,-0.43 -0.26,-0.88 -0.33,-1.34 -0.04,-0.24 -0.08,-0.49 -0.1,-0.73 -0.01,-0.22 -0.02,-0.58 -0.05,-0.78 -0.03,-0.25 0.02,-0.54 -0.01,-0.79 -0.16,-1.47 -0.85,-2.6 -2.18,-3.2 -0.23,-0.1 -0.67,-0.3 -0.91,-0.3l0 -0.8c0,-0.49 -0.47,-0.97 -1.05,-0.93 -0.58,-0.04 -1.05,0.44 -1.05,0.93zm-0.36 11.32c0,0.76 0.63,1.34 1.33,1.34 0.03,0 0.05,-0 0.08,-0 0.03,0 0.05,0 0.08,0 0.7,0 1.33,-0.58 1.33,-1.34 0,-0.12 -0,-0.33 -0.11,-0.33l-1.3 0 -1.3 0c-0.11,0 -0.11,0.22 -0.11,0.33z"/>
   </g>
   <g>
    <g>
     <path class="fil0" d="M-0 16.47c0,2.62 0.86,5.62 2.37,7.74 0.18,0.25 0.86,1.16 1.11,1.43 0.26,0.28 0.57,0.66 0.84,0.86 0.17,0.13 0.26,0.27 0.43,0.4 0.74,0.58 1.1,0.9 1.95,1.41 0.19,0.11 0.34,0.19 0.54,0.29 1.04,0.53 1.76,0.89 3.03,1.2 3.57,0.89 7.33,0.44 10.47,-1.45 1.11,-0.67 1.92,-1.3 2.85,-2.22 0.08,-0.08 0.14,-0.13 0.21,-0.21 0.08,-0.1 0.09,-0.13 0.19,-0.23 0.15,-0.15 0.26,-0.28 0.39,-0.44 0.96,-1.18 0.99,-1.37 1.65,-2.5l0.52 -1.18c0.31,-0.78 0.39,-1.07 0.61,-1.93 0.56,-2.22 0.45,-4.64 -0.14,-6.81 -0.6,0.16 -1.23,0.24 -1.88,0.24 -0.13,0 -0.27,-0 -0.4,-0.01 0.29,0.92 0.47,1.88 0.52,2.87 0.33,6.54 -4.8,11.78 -10.93,12.06 -6.54,0.3 -11.75,-4.76 -12.04,-10.93 -0.32,-6.55 4.79,-11.76 10.95,-12.05 1.6,-0.08 3.12,0.18 4.51,0.69l-0 -0.01c0,-0.79 0.12,-1.54 0.35,-2.25 -4.91,-1.64 -10.35,-0.36 -14.1,3.4 -1.46,1.46 -2.61,3.27 -3.26,5.26 -0.15,0.46 -0.25,0.84 -0.37,1.33 -0.21,0.83 -0.36,2.05 -0.36,3.05z"/>
    </g>
    <circle class="fil0" cx="25.13" cy="5.68" r="5.68"/>
   </g>
  </g>
 </g>
</svg>
