<?xml version="1.0" encoding="UTF-8"?>
<!DOCTYPE svg PUBLIC "-//W3C//DTD SVG 1.1//EN" "http://www.w3.org/Graphics/SVG/1.1/DTD/svg11.dtd">
<!-- Creator: CorelDRAW 2019 (64-Bit Evaluation Version) -->
<svg xmlns="http://www.w3.org/2000/svg" xml:space="preserve" width="0.566665in" height="0.566665in" version="1.1" style="shape-rendering:geometricPrecision; text-rendering:geometricPrecision; image-rendering:optimizeQuality; fill-rule:evenodd; clip-rule:evenodd"
viewBox="0 0 22.24 22.24"
 xmlns:xlink="http://www.w3.org/1999/xlink"
 xmlns:xodm="http://www.corel.com/coreldraw/odm/2003">
 <defs>
  <style type="text/css">
   <![CDATA[
    .fil0 {fill:white}
   ]]>
  </style>
 </defs>
 <g id="Layer_x0020_1">
  <metadata id="CorelCorpID_0Corel-Layer"/>
  <g id="_1349953217968">
   <g>
    <path class="fil0" d="M10.07 6.88c-0.11,0 -0.37,0.1 -0.48,0.14 -0.06,0.02 -0.1,0.04 -0.16,0.06 -0.03,0.01 -0.05,0.02 -0.07,0.03l-0.22 0.1c-0.34,0.17 -0.21,0.21 -0.46,0.02 -0.06,-0.05 -0.12,-0.09 -0.18,-0.13l-0.92 -0.66c-0.06,-0.04 -0.12,-0.09 -0.18,-0.13l-1.06 1.07 0.59 0.84c0.02,0.03 0.03,0.05 0.06,0.08l0.32 0.46c0.07,0.1 0.08,0.06 0.02,0.17 -0.06,0.12 -0.12,0.22 -0.18,0.34 -0.1,0.22 -0.19,0.44 -0.25,0.67 -0.01,0.03 -0.02,0.08 -0.03,0.11l-1.14 0.2c-0.19,0.02 -0.38,0.07 -0.57,0.1 -0.08,0.01 -0.06,0.03 -0.06,0.17l0 1.35 1.77 0.31c0,0.03 0.01,0.05 0.02,0.08l0.07 0.25c0.09,0.26 0.2,0.49 0.32,0.73 0.08,0.17 0.11,0.11 0.01,0.24 -0.03,0.03 -0.04,0.06 -0.06,0.09l-0.13 0.18c-0.02,0.03 -0.01,0.02 -0.03,0.05 -0.01,0.02 -0.02,0.03 -0.03,0.05l-0.26 0.37c-0.02,0.03 -0.04,0.06 -0.07,0.09 -0.07,0.1 -0.34,0.45 -0.39,0.55l1.06 1.06c0.04,-0.02 0.05,-0.03 0.09,-0.06l1.01 -0.71c0.06,-0.05 0.12,-0.08 0.18,-0.13 0.03,-0.02 0.06,-0.04 0.09,-0.06 0.03,-0.02 0.06,-0.05 0.09,-0.07 0.17,0.09 0.3,0.16 0.48,0.25 0.22,0.1 0.46,0.18 0.72,0.24 0.03,0.14 0.05,0.3 0.08,0.44l0.21 1.25c0.01,0.04 0,0.1 0.04,0.1l1.45 0c0.04,0 0.04,-0.05 0.05,-0.08 0.01,-0.05 0.01,-0.07 0.02,-0.12 0.02,-0.08 0.03,-0.15 0.04,-0.22 0.01,-0.08 0.03,-0.14 0.04,-0.22l0.08 -0.46c0.02,-0.08 0.03,-0.16 0.04,-0.22 0.02,-0.09 0.08,-0.39 0.08,-0.46 0.14,-0.01 0.53,-0.17 0.68,-0.23 0.03,-0.01 0.06,-0.03 0.09,-0.05l0.25 -0.13c0.03,-0.02 0.06,-0.03 0.09,-0.05 0.09,-0.06 0.08,-0.03 0.16,0.03 0.03,0.02 0.05,0.03 0.08,0.05l0.23 0.16c0.15,0.11 0.32,0.22 0.47,0.33 0.1,0.08 0.2,0.14 0.3,0.22l0.16 0.11c0.05,0.04 0.1,0.07 0.15,0.11l1.06 -1.06c-0.01,-0.05 -0.33,-0.48 -0.39,-0.56l-0.4 -0.55c-0.05,-0.06 -0.08,-0.12 -0.13,-0.18 -0.18,-0.24 -0.14,-0.17 -0.06,-0.33l0.27 -0.57c0.02,-0.06 0.04,-0.1 0.06,-0.16 0.02,-0.05 0.03,-0.1 0.05,-0.16 0.01,-0.04 0.04,-0.13 0.04,-0.17 0.08,0 0.15,-0.03 0.23,-0.04l1.35 -0.25c0.03,-0.01 0.21,-0.02 0.21,-0.07l0 -1.46c0,-0.04 -0.05,-0.03 -0.09,-0.04l-1.02 -0.17c-0.22,-0.04 -0.46,-0.06 -0.68,-0.12 -0.04,-0.19 -0.11,-0.37 -0.18,-0.55l-0.06 -0.15c-0.07,-0.14 -0.14,-0.29 -0.22,-0.42 -0.02,-0.03 -0.03,-0.04 -0.03,-0.07 0.02,-0.03 0.04,-0.06 0.06,-0.09 0.02,-0.02 0.02,-0.03 0.03,-0.05l0.16 -0.23c0.18,-0.25 0.35,-0.49 0.52,-0.74l0.13 -0.18c0.02,-0.03 0.04,-0.06 0.06,-0.09 0.02,-0.03 0.05,-0.06 0.07,-0.09l-1.07 -1.07c-0.16,0.14 -0.71,0.5 -0.91,0.66l-0.55 0.4c-0.15,-0.08 -0.29,-0.17 -0.45,-0.23 -0.03,-0.01 -0.02,-0.01 -0.04,-0.02 -0.03,-0.02 -0.05,-0.02 -0.08,-0.03 -0.15,-0.06 -0.48,-0.2 -0.63,-0.21 -0.04,-0.17 -0.13,-0.72 -0.16,-0.89 -0.02,-0.15 -0.05,-0.3 -0.08,-0.44 -0.01,-0.08 -0.03,-0.15 -0.04,-0.23 -0.01,-0.03 -0.01,-0.07 -0.02,-0.11 -0.01,-0.04 -0.02,-0.08 -0.02,-0.12l-1.44 -0c-0.09,-0 -0.06,0.01 -0.1,0.24l-0.18 1.16c-0.02,0.11 -0.06,0.28 -0.06,0.39zm1.05 1.13c1.71,0 3.1,1.39 3.1,3.11 0,1.72 -1.39,3.11 -3.1,3.11 -1.71,0 -3.1,-1.39 -3.1,-3.11 0,-1.72 1.39,-3.11 3.1,-3.11z"/>
    <path class="fil0" d="M11.12 8.92c1.21,0 2.19,0.98 2.19,2.2 0,1.21 -0.98,2.2 -2.19,2.2 -1.21,0 -2.19,-0.98 -2.19,-2.2 0,-1.21 0.98,-2.2 2.19,-2.2zm0 1.29c0.5,0 0.9,0.4 0.9,0.9 0,0.5 -0.4,0.9 -0.9,0.9 -0.5,0 -0.9,-0.4 -0.9,-0.9 0,-0.5 0.4,-0.9 0.9,-0.9z"/>
   </g>
   <g>
    <path class="fil0" d="M-0 11.11c0,2.11 0.7,4.54 1.91,6.25 0.14,0.2 0.69,0.94 0.9,1.15 0.21,0.22 0.46,0.53 0.68,0.7 0.14,0.1 0.21,0.21 0.35,0.32 0.6,0.47 0.89,0.73 1.58,1.14 0.15,0.09 0.27,0.16 0.43,0.24 0.84,0.42 1.42,0.72 2.45,0.97 2.89,0.72 5.92,0.35 8.46,-1.17 0.9,-0.54 1.55,-1.05 2.3,-1.8 0.06,-0.06 0.11,-0.1 0.17,-0.17 0.07,-0.08 0.07,-0.11 0.15,-0.19 0.12,-0.12 0.21,-0.23 0.32,-0.36 0.78,-0.95 0.8,-1.11 1.34,-2.02l0.42 -0.95c0.25,-0.63 0.32,-0.87 0.49,-1.56 0.59,-2.36 0.26,-4.99 -0.68,-7.1 -0.14,-0.31 -0.3,-0.62 -0.47,-0.91 -0.09,-0.15 -0.15,-0.27 -0.25,-0.42 -0.1,-0.15 -0.18,-0.27 -0.28,-0.42 -0.13,-0.2 -0.7,-0.94 -0.9,-1.15l-0.69 -0.69c-0.72,-0.73 -1.96,-1.52 -2.89,-1.95 -4.25,-1.98 -9.23,-1.06 -12.56,2.28 -1.18,1.18 -2.11,2.64 -2.64,4.25 -0.12,0.37 -0.2,0.68 -0.3,1.08 -0.17,0.67 -0.29,1.66 -0.29,2.47zm10.69 -9.27c-4.99,0.23 -9.11,4.44 -8.85,9.74 0.24,4.99 4.45,9.08 9.73,8.84 4.96,-0.22 9.1,-4.46 8.83,-9.75 -0.25,-4.97 -4.44,-9.08 -9.71,-8.83z"/>
   </g>
  </g>
 </g>
</svg>
