<?xml version="1.0" encoding="UTF-8"?>
<!DOCTYPE svg PUBLIC "-//W3C//DTD SVG 1.1//EN" "http://www.w3.org/Graphics/SVG/1.1/DTD/svg11.dtd">
<!-- Creator: CorelDRAW 2019 (64-Bit Evaluation Version) -->
<svg xmlns="http://www.w3.org/2000/svg" xml:space="preserve" width="0.665087in" height="0.652882in" version="1.1" style="shape-rendering:geometricPrecision; text-rendering:geometricPrecision; image-rendering:optimizeQuality; fill-rule:evenodd; clip-rule:evenodd"
viewBox="0 0 34.01 33.38"
 xmlns:xlink="http://www.w3.org/1999/xlink"
 xmlns:xodm="http://www.corel.com/coreldraw/odm/2003">
 <defs>
  <style type="text/css">
   <![CDATA[
    .fil0 {fill:white}
   ]]>
  </style>
 </defs>
 <g id="Layer_x0020_1">
  <metadata id="CorelCorpID_0Corel-Layer"/>
  <g id="_2002838924480">
   <g>
    <path id="_805154b79e.svg" class="fil0" d="M17.78 11.97l-7.25 0 -0 12.45 9.32 0 0 -10.38 -2.07 -0 0 -2.08zm-5.69 1.04l4.66 0 0 0.52 -4.66 0 -0 -0.52zm6.73 9.86l-6.73 0 0 -0.52 6.73 0 0 0.52zm0 -1.56l-6.73 0 0 -0.52 6.73 0 0 0.52zm0 -1.56l-6.73 0 0 -0.52 6.73 0 0 0.52zm0 -1.56l-6.73 0 0 -0.52 6.73 0 0 0.52zm0 -1.56l-6.73 0 0 -0.52 6.73 0 0 0.52zm0 -1.56l-6.73 0 0 -0.52 6.73 0 0 0.52zm-0.52 -3.11l0 1.56 1.55 0 -1.55 -1.56z"/>
    <path class="fil0" d="M-0 18.17c0,2.89 0.95,6.2 2.61,8.54 0.2,0.27 0.95,1.29 1.22,1.57 0.29,0.3 0.63,0.72 0.93,0.95 0.19,0.14 0.29,0.29 0.48,0.44 0.82,0.64 1.21,0.99 2.15,1.56 0.21,0.13 0.37,0.21 0.59,0.32 1.15,0.58 1.94,0.98 3.35,1.33 3.95,0.98 8.09,0.48 11.56,-1.6 1.23,-0.74 2.12,-1.43 3.14,-2.45 0.08,-0.08 0.15,-0.14 0.23,-0.23 0.09,-0.11 0.1,-0.15 0.21,-0.25 0.16,-0.17 0.29,-0.31 0.43,-0.49 1.06,-1.3 1.09,-1.51 1.82,-2.76l0.58 -1.3c0.34,-0.86 0.43,-1.18 0.67,-2.13 0.62,-2.45 0.5,-5.12 -0.15,-7.52 -0.66,0.17 -1.36,0.27 -2.08,0.27 -0.15,0 -0.3,-0 -0.44,-0.01 0.32,1.01 0.51,2.08 0.57,3.17 0.36,7.22 -5.29,13 -12.06,13.31 -7.22,0.33 -12.96,-5.25 -13.29,-12.07 -0.35,-7.23 5.28,-12.98 12.09,-13.3 1.77,-0.08 3.45,0.19 4.98,0.76l-0 -0.01c0,-0.87 0.14,-1.7 0.39,-2.49 -5.42,-1.81 -11.42,-0.4 -15.56,3.75 -1.61,1.62 -2.88,3.61 -3.6,5.8 -0.17,0.5 -0.28,0.93 -0.41,1.47 -0.23,0.92 -0.39,2.26 -0.39,3.37z"/>
   </g>
   <circle class="fil0" cx="27.74" cy="6.27" r="6.27"/>
  </g>
 </g>
</svg>
