<?xml version="1.0" encoding="UTF-8"?>
<!DOCTYPE svg PUBLIC "-//W3C//DTD SVG 1.1//EN" "http://www.w3.org/Graphics/SVG/1.1/DTD/svg11.dtd">
<!-- Creator: CorelDRAW 2019 (64-Bit Evaluation Version) -->
<svg xmlns="http://www.w3.org/2000/svg" xml:space="preserve" width="0.568551in" height="0.568547in" version="1.1" style="shape-rendering:geometricPrecision; text-rendering:geometricPrecision; image-rendering:optimizeQuality; fill-rule:evenodd; clip-rule:evenodd"
viewBox="0 0 24.74 24.74"
 xmlns:xlink="http://www.w3.org/1999/xlink"
 xmlns:xodm="http://www.corel.com/coreldraw/odm/2003">
 <defs>
  <style type="text/css">
   <![CDATA[
    .fil0 {fill:white}
   ]]>
  </style>
 </defs>
 <g id="Layer_x0020_1">
  <metadata id="CorelCorpID_0Corel-Layer"/>
  <g id="_1350248479136">
   <g>
    <path id="_805154b79e.svg" class="fil0" d="M14.48 7.3l-5.9 0 -0 10.14 7.59 0 0 -8.45 -1.69 -0 0 -1.69zm-4.64 0.85l3.79 0 0 0.42 -3.79 0 -0 -0.42zm5.48 8.03l-5.48 0 0 -0.42 5.48 0 0 0.42zm0 -1.27l-5.48 0 0 -0.42 5.48 0 0 0.42zm0 -1.27l-5.48 0 0 -0.42 5.48 0 0 0.42zm0 -1.27l-5.48 0 0 -0.42 5.48 0 0 0.42zm0 -1.27l-5.48 0 0 -0.42 5.48 0 0 0.42zm0 -1.27l-5.48 0 0 -0.42 5.48 0 0 0.42zm-0.42 -2.54l0 1.27 1.26 0 -1.26 -1.27z"/>
    <path class="fil0" d="M-0 12.36c0,2.35 0.77,5.05 2.13,6.96 0.16,0.22 0.77,1.05 1,1.28 0.24,0.25 0.51,0.59 0.76,0.78 0.15,0.12 0.24,0.24 0.39,0.36 0.66,0.52 0.98,0.81 1.75,1.27 0.17,0.1 0.3,0.17 0.48,0.26 0.93,0.47 1.58,0.8 2.73,1.08 3.21,0.8 6.59,0.39 9.41,-1.31 1,-0.6 1.73,-1.17 2.56,-2 0.07,-0.07 0.12,-0.12 0.19,-0.19 0.08,-0.09 0.08,-0.12 0.17,-0.21 0.13,-0.14 0.23,-0.25 0.35,-0.4 0.86,-1.06 0.89,-1.23 1.49,-2.25l0.47 -1.06c0.28,-0.7 0.35,-0.96 0.55,-1.73 0.5,-2 0.41,-4.17 -0.13,-6.13 -0.54,0.14 -1.11,0.22 -1.69,0.22 -0.12,0 -0.24,-0 -0.36,-0.01 0.26,0.82 0.42,1.69 0.46,2.58 0.3,5.88 -4.31,10.59 -9.82,10.84 -5.88,0.27 -10.56,-4.28 -10.83,-9.83 -0.28,-5.89 4.3,-10.57 9.85,-10.83 1.44,-0.07 2.81,0.16 4.06,0.62l-0 -0.01c0,-0.71 0.11,-1.39 0.31,-2.02 -4.42,-1.48 -9.3,-0.33 -12.68,3.06 -1.31,1.32 -2.35,2.94 -2.93,4.73 -0.14,0.41 -0.23,0.76 -0.34,1.2 -0.19,0.75 -0.32,1.84 -0.32,2.75z"/>
   </g>
  </g>
 </g>
</svg>
